<svg xmlns="http://www.w3.org/2000/svg" width="560" height="140" viewBox="0 0 560 140" role="img" aria-label="Gorgias">
  <rect width="560" height="140" fill="#0A0A0A"/>
  <!-- cascade mark: one line in, blast radius out -->
  <g stroke="#9D8B5E" stroke-width="1.5" fill="none">
    <line x1="70" y1="22" x2="70" y2="52"/>
    <line x1="70" y1="52" x2="40" y2="76"/>
    <line x1="70" y1="52" x2="70" y2="76"/>
    <line x1="70" y1="52" x2="100" y2="76"/>
    <line x1="40" y1="76" x2="28" y2="102"/>
    <line x1="40" y1="76" x2="52" y2="102"/>
    <line x1="100" y1="76" x2="88" y2="102"/>
    <line x1="100" y1="76" x2="112" y2="102"/>
  </g>
  <g fill="#9D8B5E">
    <rect x="66" y="14" width="8" height="8"/>
    <rect x="36" y="72" width="8" height="8" fill="#C4A96A"/>
    <rect x="66" y="72" width="8" height="8" fill="#6C6042"/>
    <rect x="96" y="72" width="8" height="8" fill="#6C6042"/>
    <rect x="24" y="98" width="8" height="8" fill="#544B34"/>
    <rect x="48" y="98" width="8" height="8" fill="#544B34"/>
    <rect x="84" y="98" width="8" height="8" fill="#544B34"/>
    <rect x="108" y="98" width="8" height="8" fill="#544B34"/>
  </g>
  <text x="150" y="82" font-family="Archivo, 'Helvetica Neue', Arial, sans-serif" font-size="52" font-weight="800" letter-spacing="6" fill="#FFFFFF">GORGIAS</text>
  <text x="152" y="112" font-family="'JetBrains Mono', Menlo, monospace" font-size="14" letter-spacing="3" fill="#8A8278">A FLIGHT SIMULATOR FOR LAWMAKING</text>
</svg>
